<svg width="20" height="20" viewBox="0 0 20 20" fill="none" xmlns="http://www.w3.org/2000/svg">
<path d="M17.4458 3.68755H2.49226C2.16177 3.68755 1.84481 3.81705 1.61111 4.04757C1.37742 4.27808 1.24613 4.59073 1.24613 4.91673V14.7502C1.24613 15.0762 1.37742 15.3888 1.61111 15.6193C1.84481 15.8498 2.16177 15.9794 2.49226 15.9794H17.4458C17.7763 15.9794 18.0933 15.8498 18.327 15.6193C18.5607 15.3888 18.6919 15.0762 18.6919 14.7502V4.91673C18.6919 4.59073 18.5607 4.27808 18.327 4.04757C18.0933 3.81705 17.7763 3.68755 17.4458 3.68755ZM16.0751 4.91673L9.96904 9.08365L3.863 4.91673H16.0751ZM2.49226 14.7502V5.47601L9.61389 10.3374C9.71819 10.4088 9.8421 10.447 9.96904 10.447C10.096 10.447 10.2199 10.4088 10.3242 10.3374L17.4458 5.47601V14.7502H2.49226Z" fill="#F0F0F9"/>
</svg>
