<svg width="80" height="16" viewBox="0 0 80 16" fill="none" xmlns="http://www.w3.org/2000/svg">
<path d="M4.32 15.24C3.78667 14.56 3.24667 13.72 2.7 12.72L1.48 10.5C0.76 9.19333 0.4 7.88667 0.4 6.58C0.4 5.20667 0.826667 4.04 1.68 3.08C2.54667 2.10667 3.65333 1.62 5 1.62C6.24 1.62 7.22667 1.89333 7.96 2.44C8.8 3.05333 9.22 3.95333 9.22 5.14L10 5.44L10.08 5.54L10.12 5.62C10.12 5.78 10.04 5.86 9.88 5.86H6.26C6.12667 5.86 6.06 5.78 6.06 5.62C6.06 5.55333 6.11333 5.49333 6.22 5.44L6.88 5.14C6.88 4.44667 6.76 3.82667 6.52 3.28C6.21333 2.57333 5.75333 2.22 5.14 2.22C4.36667 2.22 3.76 2.87333 3.32 4.18C2.98667 5.15333 2.82 6.12 2.82 7.08C2.82 8.28 3.1 9.52 3.66 10.8L4.26 12.14L4.54 12.72C4.67333 13 4.87333 13.36 5.14 13.8C6.3 12.9733 6.88 11.1867 6.88 8.44L6.26 8.2L6.14 8.12L6.06 7.98C6.06 7.91333 6.12 7.84667 6.24 7.78H9.88C10 7.78 10.0667 7.85333 10.08 8L10.04 8.08L9.9 8.2L9.22 8.5C9.22 10.1267 8.8 11.5533 7.96 12.78C7.06667 14.1 5.85333 14.92 4.32 15.24ZM16.445 14.28V6.18C15.7517 7.43333 15.125 8.71333 14.565 10.02L14.065 11.62C13.945 12.0067 13.885 12.48 13.885 13.04L13.945 13.62L14.005 14L14.105 14.28L15.005 14.58L15.085 14.68L15.125 14.76C15.125 14.92 15.045 15 14.885 15H11.025C10.8917 15 10.825 14.92 10.825 14.76C10.825 14.68 10.8783 14.62 10.985 14.58L11.765 14.28C11.565 13.84 11.465 13.3933 11.465 12.94C11.465 11.9667 11.825 10.8867 12.545 9.7C12.9583 8.99333 13.6917 8.02 14.745 6.78C15.6917 5.66 16.2583 4.90667 16.445 4.52V2.52L15.825 2.28L15.705 2.2L15.625 2.06C15.625 1.99333 15.685 1.92667 15.805 1.86H19.445C19.565 1.86 19.6317 1.93333 19.645 2.08L19.605 2.16L19.465 2.28L18.785 2.58V14.28L19.685 14.58L19.765 14.68L19.805 14.76C19.805 14.92 19.725 15 19.565 15H15.705C15.5717 15 15.505 14.92 15.505 14.76C15.505 14.68 15.5583 14.62 15.665 14.58L16.445 14.28ZM36.0017 8.76C36.0017 10.7733 35.4617 12.32 34.3817 13.4C33.3151 14.4667 31.7751 15 29.7617 15C29.7084 15.24 29.5617 15.4533 29.3217 15.64C29.0817 15.8267 28.8351 15.92 28.5817 15.92C28.2751 15.92 28.0151 15.8467 27.8017 15.7C27.5484 15.5267 27.4217 15.2933 27.4217 15C23.2484 15 21.1617 12.92 21.1617 8.76C21.1617 6.44 21.6151 4.73333 22.5217 3.64C23.5084 2.45333 25.1417 1.86 27.4217 1.86C27.4751 1.60667 27.6151 1.39333 27.8417 1.22C28.0684 1.03333 28.3151 0.94 28.5817 0.94C29.1284 0.94 29.5217 1.24667 29.7617 1.86C32.0017 1.86 33.6217 2.46667 34.6217 3.68C35.5417 4.77333 36.0017 6.46667 36.0017 8.76ZM33.5817 8.76C33.5817 6.18667 33.1751 4.43333 32.3617 3.5C31.8284 2.88667 30.9751 2.58 29.8017 2.58C29.6151 3.22 29.2084 3.54 28.5817 3.54C27.9417 3.54 27.5417 3.22 27.3817 2.58C25.8484 2.58 24.7817 3.28 24.1817 4.68C23.7817 5.62667 23.5817 6.98667 23.5817 8.76C23.5817 10.0133 23.8017 11.1333 24.2417 12.12C24.8951 13.56 25.9417 14.28 27.3817 14.28C27.4217 14.0133 27.5617 13.7867 27.8017 13.6C28.0417 13.4133 28.3017 13.32 28.5817 13.32C29.2884 13.32 29.6951 13.64 29.8017 14.28C31.1217 14.28 32.1284 13.62 32.8217 12.3C33.3284 11.3533 33.5817 10.1733 33.5817 8.76ZM42.6388 15V6.58L41.6988 8.04L41.0788 9.08C40.3988 10.2 40.0588 11.2533 40.0588 12.24C40.0588 12.76 40.1388 13.2467 40.2988 13.7C40.3921 13.98 40.6788 14.28 41.1588 14.6L41.2988 14.78C41.2988 14.8733 41.2454 14.9467 41.1388 15H37.1188C37.0521 15 36.9854 14.92 36.9188 14.76C36.9188 14.68 36.9721 14.6067 37.0788 14.54L37.8588 14.28L37.7588 13.96L37.6988 13.58L37.6388 12.74C37.5588 11.78 37.9854 10.7867 38.9188 9.76L41.3388 7.1C42.2054 6.14 42.6388 5.28 42.6388 4.52C42.6388 4.29333 42.5321 4.08 42.3188 3.88C42.1054 3.66667 41.8854 3.56 41.6588 3.56C41.5254 3.56 41.4054 3.61333 41.2988 3.72C41.7521 3.84 41.9788 4.10667 41.9788 4.52C41.9788 4.81333 41.8588 5.07333 41.6188 5.3C41.3921 5.52667 41.1254 5.64 40.8188 5.64C40.4321 5.64 40.1121 5.49333 39.8588 5.2C39.6188 4.89333 39.4988 4.54 39.4988 4.14C39.4988 3.72667 39.6321 3.36667 39.8988 3.06C40.1788 2.74 40.5254 2.58 40.9388 2.58C41.6454 2.58 42.2121 2.92 42.6388 3.6V2.52L42.0188 2.28L41.8988 2.2L41.8188 2.06C41.8188 1.99333 41.8788 1.92667 41.9987 1.86H45.6388C45.7588 1.86 45.8254 1.93333 45.8388 2.08L45.7988 2.16L45.6588 2.28L44.9788 2.58V9.1L47.3588 5.78V2.52L46.7388 2.28L46.6188 2.2L46.5388 2.06C46.5388 1.99333 46.5988 1.92667 46.7188 1.86H50.3588C50.4788 1.86 50.5454 1.93333 50.5588 2.08L50.5188 2.16L50.3788 2.28L49.6988 2.58V14.28L50.5988 14.58L50.6788 14.68L50.7188 14.76C50.7188 14.92 50.6388 15 50.4788 15H46.6188C46.4854 15 46.4188 14.92 46.4188 14.76C46.4188 14.68 46.4721 14.62 46.5788 14.58L47.3588 14.28V7L46.0388 8.76L45.4988 9.62L44.9788 10.62V14.28L45.8788 14.58L45.9588 14.68L45.9988 14.76C45.9988 14.92 45.9188 15 45.7588 15H42.6388ZM57.0997 14.28V6.9C56.553 8.31333 55.9464 9.19333 55.2797 9.54C55.5597 9.78 55.6997 10.12 55.6997 10.56C55.6997 11.32 55.3464 11.7667 54.6397 11.9C54.6397 12.2867 54.733 12.7667 54.9197 13.34C55.1064 13.9133 55.3197 14.3333 55.5597 14.6L55.6597 14.76C55.6597 14.92 55.5997 15 55.4797 15H52.0597C51.9397 15 51.8797 14.92 51.8797 14.76C51.9197 14.7067 51.993 14.6533 52.0997 14.6C52.6597 14.52 53.133 14.0933 53.5197 13.32C53.7864 12.7867 53.9197 12.3067 53.9197 11.88C53.693 11.84 53.4664 11.68 53.2397 11.4C53.0664 11.0933 52.9797 10.8133 52.9797 10.56C52.9797 9.90667 53.313 9.46667 53.9797 9.24C53.6997 9.16 53.453 8.99333 53.2397 8.74L53.0597 8.32L52.9797 7.86C52.9797 7.35333 53.3864 6.81333 54.1997 6.24C54.493 6.04 54.9997 5.68 55.7197 5.16C56.4397 4.62667 56.7997 4.19333 56.7997 3.86C56.7997 3.64667 56.6997 3.48 56.4997 3.36C56.313 3.22667 56.1064 3.16 55.8797 3.16C55.9597 3.30667 55.9997 3.46 55.9997 3.62C55.9997 3.80667 55.8997 4.02 55.6997 4.26C55.513 4.42 55.293 4.5 55.0397 4.5C54.853 4.5 54.6464 4.4 54.4197 4.2C54.2597 4 54.1797 3.75333 54.1797 3.46C54.1797 2.99333 54.393 2.67333 54.8197 2.5L55.2797 2.42C56.013 2.42 56.6197 2.74 57.0997 3.38V2.52L56.4797 2.28L56.3597 2.2L56.2797 2.06C56.2797 1.99333 56.3397 1.92667 56.4597 1.86H60.0997C60.2197 1.86 60.2864 1.93333 60.2997 2.08L60.2597 2.16L60.1197 2.28L59.4397 2.58V14.28L60.3397 14.58L60.4197 14.68L60.4597 14.76C60.4597 14.92 60.3797 15 60.2197 15H56.3597C56.2264 15 56.1597 14.92 56.1597 14.76C56.1597 14.68 56.213 14.62 56.3197 14.58L57.0997 14.28ZM57.0997 5.34V4.46L56.9397 4.8L56.6797 5.2L56.4597 5.5L55.9797 6.02C55.0864 6.99333 54.6397 7.7 54.6397 8.14C54.6397 8.23333 54.673 8.32 54.7397 8.4L55.0197 8.5C55.4597 8.5 55.9064 8.06667 56.3597 7.2C56.6664 6.6 56.913 5.98 57.0997 5.34ZM62.9658 14.28V5.78C62.9658 4.60667 63.3324 3.62 64.0658 2.82C64.8124 2.02 65.7658 1.62 66.9258 1.62C67.8591 1.62 68.6858 1.91333 69.4058 2.5C70.1791 3.12667 70.5658 3.89333 70.5658 4.8C70.5658 5.56 70.3858 6.24 70.0258 6.84C69.5858 7.54667 69.0124 7.9 68.3058 7.9C67.3058 7.9 66.5724 7.32667 66.1058 6.18L65.3058 7.12V14.28L66.2058 14.58L66.2858 14.68L66.3258 14.76C66.3258 14.92 66.2458 15 66.0858 15H62.2258C62.0924 15 62.0258 14.92 62.0258 14.76C62.0258 14.68 62.0791 14.62 62.1858 14.58L62.9658 14.28ZM65.3058 6.5C65.6258 6.22 65.9124 5.83333 66.1658 5.34C66.2724 5.68667 66.4324 6.04 66.6458 6.4C66.8324 6.64 67.0124 6.78 67.1858 6.82C67.5324 6.82 67.8058 6.50667 68.0058 5.88C68.1524 5.41333 68.2258 4.96 68.2258 4.52C68.2258 4.09333 68.1124 3.64667 67.8858 3.18C67.6191 2.62 67.2991 2.34 66.9258 2.34C66.2591 2.34 65.7858 2.81333 65.5058 3.76L65.3658 4.92L65.3058 6.5ZM79.4227 15H71.7227C71.656 15 71.5893 14.92 71.5227 14.76C71.5227 14.68 71.576 14.6067 71.6827 14.54L72.4627 14.28V2.52L71.8427 2.28L71.7227 2.2L71.6427 2.06C71.6427 1.99333 71.7027 1.92667 71.8227 1.86H75.4627C75.5827 1.86 75.6493 1.93333 75.6627 2.08L75.6227 2.16L75.4827 2.28L74.8027 2.58V6.22C75.7227 7.27333 76.7827 7.99333 77.9827 8.38L78.5227 8.5L79.1427 8.54V8.76C78.9693 8.85333 78.8827 9.11333 78.8827 9.54V14.36L79.5427 14.58L79.6227 14.68L79.6627 14.76C79.6627 14.92 79.5827 15 79.4227 15ZM76.5427 14.48V8.54L75.6427 7.94C75.3627 7.71333 75.0827 7.45333 74.8027 7.16V14.48H76.5427Z" fill="#AF5661"/>
</svg>
